<?xml version="1.0" encoding="utf-8"?>
<!-- Generator: Adobe Illustrator 23.0.1, SVG Export Plug-In . SVG Version: 6.00 Build 0)  -->
<svg version="1.1" id="Layer_1" xmlns="http://www.w3.org/2000/svg" xmlns:xlink="http://www.w3.org/1999/xlink" x="0px" y="0px"
	 viewBox="0 0 578 218" style="enable-background:new 0 0 578 218;" xml:space="preserve">
<style type="text/css">
	.st0{filter:url(#a);}
	.st1{fill-rule:evenodd;clip-rule:evenodd;}
	.st2{fill-rule:evenodd;clip-rule:evenodd;fill:#DD4B39;}
	.st3{fill:none;stroke:#D74837;}
	.st4{fill-rule:evenodd;clip-rule:evenodd;fill:#FFFFFF;}
	.st5{filter:url(#d);}
</style>
<filter  filterUnits="objectBoundingBox" height="102.4%" id="d" width="101.3%" x="-.7%" y="-1.2%">
	<feOffset  dy="2" in="SourceAlpha" result="shadowOffsetInner1"></feOffset>
	<feComposite  in="shadowOffsetInner1" in2="SourceAlpha" k2="-1" k3="1" operator="arithmetic" result="shadowInnerInner1">
		</feComposite>
	<feColorMatrix  in="shadowInnerInner1" values="0 0 0 0 0 0 0 0 0 0 0 0 0 0 0 0 0 0 0.02 0"></feColorMatrix>
</filter>
<filter  filterUnits="objectBoundingBox" height="101.9%" id="a" width="100.9%" x="-.5%" y="-.5%">
	<feOffset  dy="2" in="SourceAlpha" result="shadowOffsetOuter1"></feOffset>
	<feComposite  in="shadowOffsetOuter1" in2="SourceAlpha" operator="out" result="shadowOffsetOuter1"></feComposite>
	<feColorMatrix  in="shadowOffsetOuter1" values="0 0 0 0 0 0 0 0 0 0 0 0 0 0 0 0 0 0 0.02 0"></feColorMatrix>
</filter>
<g>
	<g class="st0">
		<path id="b_1_" class="st1" d="M0,0h216v216H0V0z"/>
	</g>
	<g>
		<path class="st2" d="M0,0h216v216H0V0z"/>
	</g>
	<path class="st3" d="M0.5,0.5h215v215H0.5V0.5z"/>
	<path class="st4" d="M288.1,197l-5.7-14.6h-35.8l-5.8,14.6h-22.2l35.5-82.7h22.2l34.7,82.7H288.1z M253.2,165.8H276l-11.3-29.5
		L253.2,165.8z M379.2,139.8c-8.7-5-19.8-8.9-26.7-8.9c-5.2,0-8.6,1.9-8.6,5.7c0,13.7,43.5,5.9,43.5,35.6
		c0,16.9-14.9,25.5-33.3,25.5c-13.8,0-28.2-5.1-38.1-13.2l8.4-16.9c8.5,7.3,21.4,12.5,30,12.5c6.4,0,10.4-2.4,10.4-6.7
		c0-14-43.5-5.5-43.5-34.8c0-15.5,13.1-25.3,33-25.3c12.2,0,24.4,3.8,33,9.3L379.2,139.8L379.2,139.8z M441.8,113.7
		c25.6,0,44.7,17.9,44.7,41.9c0,24.2-19.1,42.4-44.7,42.4s-44.7-18.2-44.7-42.4C397.1,131.5,416.2,113.7,441.8,113.7L441.8,113.7z
		 M442.1,132.1c-12.4,0-22.8,10.1-22.8,23.6c0,13.5,10.5,23.8,22.8,23.8c12.4,0,22.3-10.4,22.3-23.8S454.4,132.1,442.1,132.1z
		 M501.3,114.3h19l37.5,49.8v-49.8h20.1V197H559l-37.5-49.6V197h-20.2L501.3,114.3L501.3,114.3z"/>
	<g>
		<path id="c" class="st4" d="M128.1,197h-24.4l-12-22.9h-16V197H54v-82.7h37.2c21.9,0,34.5,10.6,34.5,29c0,12.5-5.2,21.7-14.8,26.7
			L128.1,197z M75.6,131.5v25.4h15.7c8.7,0,13.8-4.5,13.8-12.9c0-8.1-5.1-12.5-13.8-12.5H75.6L75.6,131.5z M139.5,114.3h65.3v17.2
			h-43.7V147h39.4v17.1l-39.4,0.1v15.6h44.8V197h-66.4L139.5,114.3L139.5,114.3z"/>
	</g>
	<g class="st5">
		<path class="st1" d="M128.1,197h-24.4l-12-22.9h-16V197H54v-82.7h37.2c21.9,0,34.5,10.6,34.5,29c0,12.5-5.2,21.7-14.8,26.7
			L128.1,197z M75.6,131.5v25.4h15.7c8.7,0,13.8-4.5,13.8-12.9c0-8.1-5.1-12.5-13.8-12.5H75.6L75.6,131.5z M139.5,114.3h65.3v17.2
			h-43.7V147h39.4v17.1l-39.4,0.1v15.6h44.8V197h-66.4L139.5,114.3L139.5,114.3z"/>
	</g>
</g>
</svg>
